<svg width="64" height="64" viewBox="0 0 64 64" fill="none" xmlns="http://www.w3.org/2000/svg">
<path d="M34.9996 3V8H38.9396C40.1556 8 41.3516 8.32 42.4076 8.924L47.5676 11.868C47.7196 11.956 47.8876 12 48.0636 12H56.9996C57.7953 12 58.5583 12.3161 59.1209 12.8787C59.6836 13.4413 59.9996 14.2044 59.9996 15C59.9996 15.7956 59.6836 16.5587 59.1209 17.1213C58.5583 17.6839 57.7953 18 56.9996 18H55.2916L63.7356 36.768C63.9851 37.3232 64.0599 37.9413 63.9498 38.54C63.8398 39.1387 63.5503 39.6898 63.1196 40.12L60.9996 38L63.1156 40.124L63.1116 40.132L63.1036 40.14L63.0796 40.164L63.0556 40.184L63.0156 40.224L62.8356 40.384C61.9956 41.088 61.0716 41.692 60.0916 42.184C58.2236 43.12 55.5196 44 51.9996 44C49.1977 44.0331 46.4267 43.4112 43.9076 42.184C42.9264 41.6922 42.0055 41.0882 41.1636 40.384L40.9836 40.224L40.9196 40.164L40.8956 40.14L40.8796 40.124V40.12C40.449 39.6898 40.1594 39.1387 40.0494 38.54C39.9394 37.9413 40.0141 37.3232 40.2636 36.768L48.7116 18H48.0636C46.8436 18 45.6476 17.684 44.5916 17.076L39.4316 14.132C39.281 14.0447 39.1097 13.9992 38.9356 14H34.9996V52H44.9996C45.7953 52 46.5583 52.3161 47.1209 52.8787C47.6836 53.4413 47.9996 54.2043 47.9996 55C47.9996 55.7957 47.6836 56.5587 47.1209 57.1213C46.5583 57.6839 45.7953 58 44.9996 58H18.9996C18.204 58 17.4409 57.6839 16.8783 57.1213C16.3157 56.5587 15.9996 55.7957 15.9996 55C15.9996 54.2043 16.3157 53.4413 16.8783 52.8787C17.4409 52.3161 18.204 52 18.9996 52H28.9996V14H25.0636C24.8895 13.9992 24.7183 14.0447 24.5676 14.132L19.4116 17.08C18.3516 17.68 17.1556 18 15.9356 18H15.2876L23.7356 36.768C23.9852 37.3232 24.0599 37.9413 23.9498 38.54C23.8398 39.1387 23.5503 39.6898 23.1196 40.12L20.9996 38L23.1156 40.124L23.1116 40.132L23.1036 40.14L23.0796 40.164L23.0156 40.224L22.8356 40.384C21.9956 41.088 21.0716 41.692 20.0916 42.184C18.2236 43.12 15.5196 44 11.9996 44C9.19768 44.0331 6.42674 43.4112 3.90763 42.184C2.92636 41.6922 2.00553 41.0882 1.16363 40.384L0.983626 40.224L0.919626 40.164L0.895626 40.14L0.879626 40.124V40.12C0.448994 39.6898 0.159437 39.1387 0.0494116 38.54C-0.0606138 37.9413 0.0140986 37.3232 0.263626 36.768L8.71163 18H6.99963C6.20398 18 5.44092 17.6839 4.87831 17.1213C4.3157 16.5587 3.99963 15.7956 3.99963 15C3.99963 14.2044 4.3157 13.4413 4.87831 12.8787C5.44092 12.3161 6.20398 12 6.99963 12H15.9356C16.111 12.0008 16.2835 11.9553 16.4356 11.868L21.5876 8.92C22.6476 8.32 23.8436 8 25.0636 8H28.9996V3C28.9996 2.20435 29.3157 1.44129 29.8783 0.87868C30.4409 0.31607 31.204 0 31.9996 0C32.7953 0 33.5583 0.31607 34.1209 0.87868C34.6836 1.44129 34.9996 2.20435 34.9996 3ZM46.7796 36.908C47.9196 37.448 49.6516 38 51.9996 38C54.3476 38 56.0796 37.448 57.2196 36.908L51.9996 25.308L46.7796 36.908ZM6.77963 36.908C7.91963 37.448 9.65163 38 11.9996 38C14.3476 38 16.0796 37.448 17.2196 36.908L11.9996 25.308L6.77963 36.908Z" fill="black"/>
</svg>
