<svg width="64" height="64" viewBox="0 0 64 64" fill="none" xmlns="http://www.w3.org/2000/svg">
<path d="M32 42.6666L35.7333 38.9333L31.5333 34.6666H42.6667V29.3333H31.5333L35.7333 25.0666L32 21.3333L21.3333 32L32 42.6666ZM13.3333 56C11.8667 56 10.6107 55.4773 9.56534 54.432C8.52 53.3866 7.99823 52.1315 8 50.6666V13.3333C8 11.8666 8.52267 10.6106 9.568 9.56529C10.6133 8.51996 11.8684 7.99818 13.3333 7.99996H24.5333C25.1111 6.39996 26.0782 5.11107 27.4347 4.13329C28.7911 3.15551 30.3129 2.66663 32 2.66663C33.6889 2.66663 35.2116 3.15551 36.568 4.13329C37.9244 5.11107 38.8907 6.39996 39.4667 7.99996H50.6667C52.1333 7.99996 53.3893 8.52263 54.4347 9.56796C55.48 10.6133 56.0018 11.8684 56 13.3333V50.6666C56 52.1333 55.4773 53.3893 54.432 54.4346C53.3867 55.48 52.1316 56.0017 50.6667 56H13.3333ZM13.3333 50.6666H50.6667V13.3333H13.3333V50.6666ZM32 11.3333C32.5778 11.3333 33.0551 11.144 33.432 10.7653C33.8089 10.3866 33.9982 9.90929 34 9.33329C34 8.75552 33.8107 8.27818 33.432 7.90129C33.0533 7.5244 32.576 7.33507 32 7.33329C31.4222 7.33329 30.9449 7.52263 30.568 7.90129C30.1911 8.27996 30.0018 8.75729 30 9.33329C30 9.91107 30.1893 10.3884 30.568 10.7653C30.9467 11.1422 31.424 11.3315 32 11.3333Z" fill="black"/>
</svg>
