<svg width="64" height="64" viewBox="0 0 64 64" fill="none" xmlns="http://www.w3.org/2000/svg">
<path d="M53.3327 21.3334H45.3327V10.6667H7.99935C5.06602 10.6667 2.66602 13.0667 2.66602 16.0001V45.3334H7.99935C7.99935 49.7601 11.5727 53.3334 15.9993 53.3334C20.426 53.3334 23.9993 49.7601 23.9993 45.3334H39.9994C39.9994 49.7601 43.5727 53.3334 47.9994 53.3334C52.426 53.3334 55.9994 49.7601 55.9994 45.3334H61.3327V32.0001L53.3327 21.3334ZM51.9994 25.3334L57.226 32.0001H45.3327V25.3334H51.9994ZM15.9993 48.0001C14.5327 48.0001 13.3327 46.8001 13.3327 45.3334C13.3327 43.8667 14.5327 42.6667 15.9993 42.6667C17.466 42.6667 18.666 43.8667 18.666 45.3334C18.666 46.8001 17.466 48.0001 15.9993 48.0001ZM21.9193 40.0001C20.4527 38.3734 18.3727 37.3334 15.9993 37.3334C13.626 37.3334 11.546 38.3734 10.0793 40.0001H7.99935V16.0001H39.9994V40.0001H21.9193ZM47.9994 48.0001C46.5327 48.0001 45.3327 46.8001 45.3327 45.3334C45.3327 43.8667 46.5327 42.6667 47.9994 42.6667C49.466 42.6667 50.666 43.8667 50.666 45.3334C50.666 46.8001 49.466 48.0001 47.9994 48.0001Z" fill="black"/>
</svg>
