<svg width="20" height="20" viewBox="0 0 20 20" fill="none" xmlns="http://www.w3.org/2000/svg">
<path d="M1.21992 1.84805H2.55992L4.56792 10.91C4.06755 11.1489 3.6468 11.5272 3.35623 11.9994C3.06565 12.4716 2.91762 13.0177 2.92992 13.572C2.89504 14.2955 3.14783 15.0034 3.6331 15.5411C4.11836 16.0789 4.79668 16.4027 5.51992 16.442H16.1609C16.3731 16.442 16.5766 16.3578 16.7266 16.2077C16.8766 16.0577 16.9609 15.8542 16.9609 15.642C16.9609 15.4299 16.8766 15.2264 16.7266 15.0764C16.5766 14.9263 16.3731 14.842 16.1609 14.842H5.51992C5.22551 14.7976 4.95924 14.6422 4.77572 14.4078C4.5922 14.1733 4.50533 13.8775 4.53292 13.581C4.50506 13.2844 4.59181 12.9884 4.77535 12.7537C4.9589 12.519 5.22532 12.3635 5.51992 12.319H16.1609C16.3261 12.3194 16.4873 12.2687 16.6225 12.1738C16.7577 12.0789 16.8602 11.9445 16.9159 11.789L19.6199 4.26605C19.6641 4.14492 19.6783 4.01491 19.6614 3.88709C19.6445 3.75927 19.5969 3.63744 19.5228 3.53196C19.4486 3.42649 19.3501 3.3405 19.2355 3.28131C19.121 3.22213 18.9939 3.1915 18.8649 3.19205H4.50192L3.98892 0.877048C3.94987 0.698549 3.85088 0.538798 3.70843 0.424364C3.56598 0.309929 3.38864 0.247708 3.20592 0.248048H1.21992C1.00775 0.248048 0.804265 0.332334 0.654236 0.482363C0.504207 0.632392 0.419922 0.835875 0.419922 1.04805C0.419922 1.26022 0.504207 1.4637 0.654236 1.61373C0.804265 1.76376 1.00775 1.84805 1.21992 1.84805ZM17.7259 4.79205L15.5949 10.706H6.16792L4.85792 4.79205H17.7279H17.7259Z" fill="#5A2911"/>
<path d="M6.17305 17.896C5.96087 17.896 5.75739 17.9803 5.60736 18.1303C5.45733 18.2803 5.37305 18.4838 5.37305 18.696C5.37305 18.9082 5.45733 19.1117 5.60736 19.2617C5.75739 19.4117 5.96087 19.496 6.17305 19.496H7.19105C7.40322 19.496 7.6067 19.4117 7.75673 19.2617C7.90676 19.1117 7.99105 18.9082 7.99105 18.696C7.99105 18.4838 7.90676 18.2803 7.75673 18.1303C7.6067 17.9803 7.40322 17.896 7.19105 17.896H6.17305Z" fill="#5A2911"/>
<path d="M13.5754 17.896C13.3632 17.896 13.1597 17.9803 13.0097 18.1303C12.8597 18.2803 12.7754 18.4838 12.7754 18.696C12.7754 18.9082 12.8597 19.1117 13.0097 19.2617C13.1597 19.4117 13.3632 19.496 13.5754 19.496H14.5934C14.8056 19.496 15.009 19.4117 15.1591 19.2617C15.3091 19.1117 15.3934 18.9082 15.3934 18.696C15.3934 18.4838 15.3091 18.2803 15.1591 18.1303C15.009 17.9803 14.8056 17.896 14.5934 17.896H13.5754Z" fill="#5A2911"/>
</svg>
