<svg width="19" height="19" viewBox="0 0 19 19" fill="none" xmlns="http://www.w3.org/2000/svg">
<path d="M6.76162 13.7219C8.29005 13.723 9.77349 13.2047 10.9686 12.2519L16.9926 18.2759C17.1356 18.4189 17.3295 18.4992 17.5316 18.4992C17.7338 18.4992 17.9277 18.4189 18.0706 18.2759C18.2136 18.133 18.2939 17.9391 18.2939 17.7369C18.2939 17.5348 18.2136 17.3409 18.0706 17.1979L12.0466 11.1739C13.001 9.97632 13.5205 8.49013 13.52 6.95873C13.5195 5.42733 12.9991 3.94148 12.0439 2.74449C11.0887 1.54749 9.75537 0.710288 8.26226 0.369969C6.76916 0.0296507 5.20475 0.206385 3.8252 0.871231C2.44565 1.53608 1.33272 2.64964 0.668649 4.02956C0.00458056 5.40949 -0.171271 6.974 0.16989 8.46691C0.511051 9.95982 1.34901 11.2927 2.54654 12.2472C3.74407 13.2017 5.23022 13.7223 6.76162 13.7219ZM3.06162 3.26793C3.79343 2.536 4.72586 2.03753 5.74099 1.83554C6.75611 1.63356 7.80833 1.73715 8.76459 2.13319C9.72084 2.52924 10.5382 3.19997 11.1132 4.06055C11.6883 4.92113 11.9952 5.93291 11.9952 6.96793C11.9952 8.00296 11.6883 9.01474 11.1132 9.87532C10.5382 10.7359 9.72084 11.4066 8.76459 11.8027C7.80833 12.1987 6.75611 12.3023 5.74099 12.1003C4.72586 11.8983 3.79343 11.3999 3.06162 10.6679C2.57181 10.1842 2.18291 9.60813 1.91749 8.97298C1.65206 8.33784 1.51538 7.65631 1.51538 6.96793C1.51538 6.27956 1.65206 5.59803 1.91749 4.96289C2.18291 4.32774 2.57181 3.75162 3.06162 3.26793Z" fill="#5A2911"/>
</svg>
