<svg width="18" height="17" viewBox="0 0 18 17" fill="none" xmlns="http://www.w3.org/2000/svg">
<path d="M15.9258 12.3109L12.2518 10.8029C12.1555 10.7646 12.0729 10.6985 12.0144 10.613C11.956 10.5275 11.9244 10.4265 11.9238 10.3229V9.46088C11.9218 9.35085 11.957 9.24337 12.0238 9.15588C12.9965 7.89503 13.5259 6.34836 13.5298 4.75588C13.5802 4.1679 13.5057 3.57591 13.3114 3.0187C13.1171 2.46148 12.8072 1.95161 12.402 1.52251C11.9969 1.0934 11.5057 0.754734 10.9606 0.528699C10.4154 0.302663 9.82869 0.19436 9.23878 0.210884C8.64831 0.193095 8.06076 0.300394 7.5147 0.525736C6.96863 0.751078 6.4764 1.08937 6.07032 1.5184C5.66424 1.94743 5.35349 2.45749 5.15848 3.01511C4.96346 3.57273 4.88859 4.16529 4.93878 4.75388C4.9428 6.34633 5.47217 7.89296 6.44478 9.15388C6.51056 9.23998 6.54575 9.34554 6.54478 9.45388V10.3129C6.54413 10.4165 6.51256 10.5175 6.45413 10.603C6.39569 10.6885 6.31304 10.7546 6.21678 10.7929L2.54978 12.3109C2.07147 12.5046 1.66163 12.8363 1.37242 13.2637C1.08322 13.6911 0.92774 14.1948 0.925781 14.7109V16.1409C0.925781 16.2319 0.943706 16.322 0.978533 16.4061C1.01336 16.4902 1.06441 16.5666 1.12876 16.6309C1.19311 16.6953 1.2695 16.7463 1.35358 16.7811C1.43766 16.816 1.52778 16.8339 1.61878 16.8339H16.8598C16.9508 16.8339 17.0409 16.816 17.125 16.7811C17.2091 16.7463 17.2855 16.6953 17.3498 16.6309C17.4142 16.5666 17.4652 16.4902 17.5 16.4061C17.5349 16.322 17.5528 16.2319 17.5528 16.1409V14.7109C17.5506 14.1945 17.3947 13.6905 17.1049 13.263C16.8151 12.8356 16.4047 12.5041 15.9258 12.3109ZM16.1648 15.4559H2.31178V14.7109C2.3127 14.4684 2.386 14.2316 2.52229 14.031C2.65858 13.8304 2.85166 13.6751 3.07678 13.5849L6.75078 12.0769C7.10164 11.9348 7.40208 11.6912 7.61357 11.3773C7.82506 11.0634 7.93795 10.6934 7.93778 10.3149V9.46088C7.93854 9.03479 7.7943 8.62113 7.52878 8.28788C6.75621 7.27114 6.33505 6.03083 6.32878 4.75388C6.2788 4.34828 6.3177 3.93666 6.44278 3.54761C6.56786 3.15855 6.77612 2.80138 7.0531 2.5009C7.33009 2.20041 7.66915 1.96381 8.04676 1.80753C8.42436 1.65125 8.83146 1.57903 9.23978 1.59588C9.6481 1.57903 10.0552 1.65125 10.4328 1.80753C10.8104 1.96381 11.1495 2.20041 11.4265 2.5009C11.7034 2.80138 11.9117 3.15855 12.0368 3.54761C12.1619 3.93666 12.2008 4.34828 12.1508 4.75388C12.1445 6.03083 11.7234 7.27114 10.9508 8.28788C10.6853 8.62117 10.5411 9.03481 10.5418 9.46088V10.3199C10.5416 10.6979 10.6541 11.0674 10.865 11.3811C11.0759 11.6948 11.3756 11.9384 11.7258 12.0809L15.3998 13.5889C15.6249 13.6791 15.818 13.8344 15.9543 14.035C16.0906 14.2356 16.1639 14.4724 16.1648 14.7149V15.4559Z" fill="#5A2911"/>
</svg>
