<svg width="64" height="64" viewBox="0 0 64 64" fill="none" xmlns="http://www.w3.org/2000/svg">
<path d="M10.6668 56C9.20017 56 7.94417 55.4773 6.89883 54.432C5.8535 53.3867 5.33172 52.1315 5.3335 50.6666V21.3333C5.3335 19.8667 5.85617 18.6107 6.9015 17.5653C7.94683 16.52 9.20195 15.9982 10.6668 16H21.3335V10.6667C21.3335 9.19998 21.8562 7.94398 22.9015 6.89865C23.9468 5.85332 25.2019 5.33154 26.6668 5.33332H37.3335C38.8002 5.33332 40.0562 5.85598 41.1015 6.90132C42.1468 7.94665 42.6686 9.20176 42.6668 10.6667V16H53.3335C54.8002 16 56.0562 16.5227 57.1015 17.568C58.1468 18.6133 58.6686 19.8684 58.6668 21.3333V50.6666C58.6668 52.1333 58.1442 53.3893 57.0988 54.4347C56.0535 55.48 54.7984 56.0018 53.3335 56H10.6668ZM26.6668 16H37.3335V10.6667H26.6668V16ZM53.3335 40H40.0002V45.3333H24.0002V40H10.6668V50.6666H53.3335V40ZM29.3335 40H34.6668V34.6666H29.3335V40ZM10.6668 34.6666H24.0002V29.3333H40.0002V34.6666H53.3335V21.3333H10.6668V34.6666Z" fill="white"/>
</svg>
