<svg width="64" height="64" viewBox="0 0 64 64" fill="none" xmlns="http://www.w3.org/2000/svg">
<path d="M13.3332 58.6666V53.3333H29.3332V42.6666H23.9998C20.311 42.6666 17.1661 41.3662 14.5652 38.7653C11.9643 36.1644 10.6647 33.0204 10.6665 29.3333C10.6665 26.6666 11.3998 24.2106 12.8665 21.9653C14.3332 19.72 16.311 18.0871 18.7998 17.0666C19.1998 13.7333 20.6558 10.944 23.1678 8.69865C25.6798 6.45332 28.6238 5.33154 31.9998 5.33332C35.3776 5.33332 38.3225 6.45598 40.8345 8.70131C43.3465 10.9466 44.8016 13.7351 45.1998 17.0666C47.6887 18.0889 49.6665 19.7226 51.1332 21.968C52.5998 24.2133 53.3332 26.6684 53.3332 29.3333C53.3332 33.0222 52.0327 36.1671 49.4318 38.768C46.831 41.3689 43.687 42.6684 39.9998 42.6666H34.6665V53.3333H50.6665V58.6666H13.3332ZM23.9998 37.3333H39.9998C42.2221 37.3333 44.111 36.5555 45.6665 35C47.2221 33.4444 47.9998 31.5555 47.9998 29.3333C47.9998 27.7333 47.5438 26.2666 46.6318 24.9333C45.7198 23.6 44.5314 22.6222 43.0665 22L40.2665 20.8L39.8665 17.7333C39.5998 15.7333 38.7225 14.0551 37.2345 12.6986C35.7465 11.3422 34.0016 10.6649 31.9998 10.6666C29.9998 10.6666 28.2549 11.3449 26.7652 12.7013C25.2754 14.0578 24.3981 15.7351 24.1332 17.7333L23.7332 20.8L20.9332 22C19.4665 22.6222 18.2781 23.6 17.3678 24.9333C16.4576 26.2666 16.0016 27.7333 15.9998 29.3333C15.9998 31.5555 16.7776 33.4444 18.3332 35C19.8887 36.5555 21.7776 37.3333 23.9998 37.3333Z" fill="white"/>
</svg>
