<svg width="23" height="22" viewBox="0 0 23 22" fill="none" xmlns="http://www.w3.org/2000/svg">
<path fill-rule="evenodd" clip-rule="evenodd" d="M4.47094 4C4.10783 4 3.81348 4.28491 3.81348 4.63636C3.81348 4.98782 4.10783 5.27273 4.47094 5.27273H5.92162L7.74856 12.8511C8.02049 13.9792 9.04353 14.7841 10.2334 14.8171V14.8182H15.3766C16.6579 14.8182 17.7527 13.9244 17.9688 12.7021L18.7943 8.03285C18.9317 7.25545 18.3131 6.54545 17.4982 6.54545H7.57869L7.08361 4.49176C7.01418 4.20375 6.7489 4 6.44334 4H4.47094ZM7.88551 7.81818L9.02909 12.5619C9.16795 13.138 9.69852 13.5455 10.3096 13.5455H15.3766C16.0172 13.5455 16.5646 13.0986 16.6727 12.4874L17.4982 7.81818H7.88551Z" fill="black"/>
<path d="M9.07321 18C9.79942 18 10.3881 17.4302 10.3881 16.7273C10.3881 16.0244 9.79942 15.4545 9.07321 15.4545C8.34699 15.4545 7.75827 16.0244 7.75827 16.7273C7.75827 17.4302 8.34699 18 9.07321 18Z" fill="black"/>
<path d="M16.3053 18C17.0316 18 17.6203 17.4302 17.6203 16.7273C17.6203 16.0244 17.0316 15.4545 16.3053 15.4545C15.5791 15.4545 14.9904 16.0244 14.9904 16.7273C14.9904 17.4302 15.5791 18 16.3053 18Z" fill="black"/>
</svg>
