<svg width="30" height="31" viewBox="0 0 30 31" fill="none" xmlns="http://www.w3.org/2000/svg">
<path d="M0 16.4695V14.5318C0.0351562 14.2536 0.0718755 13.9754 0.105469 13.6964C0.617188 9.48368 2.4711 6.02474 5.67656 3.38665C9.11719 0.554471 13.0625 -0.481517 17.4031 0.204287C20.2695 0.656369 22.7938 1.92446 24.9547 3.92445C27.5414 6.31992 29.1602 9.28796 29.7695 12.8294C29.8664 13.3931 29.9242 13.9641 30 14.5318V16.4695C29.9836 16.5471 29.957 16.6248 29.9516 16.7032C29.775 19.0947 29.1109 21.3332 27.9031 23.3785C25.5227 27.4084 22.0836 29.8872 17.5828 30.763C17.0391 30.869 16.4859 30.9224 15.9375 31H14.0625C13.6969 30.9531 13.3297 30.9127 12.9648 30.8585C9.97969 30.4169 7.34219 29.1812 5.0875 27.1116C2.48281 24.721 0.85625 21.7481 0.233594 18.201C0.132813 17.6284 0.0765625 17.0469 0 16.4695ZM18.9805 7.04616C17.7188 7.10035 16.4656 6.89897 15.2313 7.16989C14.0703 7.42464 13.2742 8.16544 12.9195 9.33406C12.7617 9.85408 12.7133 10.4194 12.6781 10.9677C12.6383 11.588 12.6688 12.2131 12.6688 12.8715H10.9773V16.0603H12.6828V25.0097H16.2922V16.036H18.7312C18.8375 14.9693 18.9391 13.9398 19.0453 12.869H16.2898C16.2898 12.3264 16.2898 11.8233 16.2898 11.3195C16.2898 10.3167 16.4617 10.1379 17.4289 10.1379C17.9422 10.1379 18.4563 10.1379 18.9797 10.1379V7.04536L18.9805 7.04616Z" fill="#000000"/>
</svg>
