<svg width="30" height="30" viewBox="0 0 30 30" fill="none" xmlns="http://www.w3.org/2000/svg">
<g clip-path="url(#clip0_0_817)">
<path fill-rule="evenodd" clip-rule="evenodd" d="M15.0001 7.29727C10.746 7.29727 7.29736 10.7459 7.29736 15C7.29736 19.254 10.746 22.7026 15.0001 22.7026C19.2541 22.7026 22.7027 19.254 22.7027 15C22.7027 10.7459 19.2541 7.29727 15.0001 7.29727ZM15.0001 19.9999C12.2386 19.9999 10.0001 17.7613 10.0001 15C10.0001 12.2385 12.2386 9.99996 15.0001 9.99996C17.7614 9.99996 20 12.2385 20 15C20 17.7613 17.7614 19.9999 15.0001 19.9999Z" fill="white"/>
<path d="M23.007 8.79293C24.0011 8.79293 24.807 7.98709 24.807 6.99293C24.807 5.99883 24.0011 5.19299 23.007 5.19299C22.0129 5.19299 21.207 5.99883 21.207 6.99293C21.207 7.98709 22.0129 8.79293 23.007 8.79293Z" fill="white"/>
<path fill-rule="evenodd" clip-rule="evenodd" d="M15 0C10.9262 0 10.4154 0.0172852 8.81549 0.090293C7.21893 0.163125 6.1285 0.41666 5.17436 0.7875C4.18799 1.17082 3.35144 1.68375 2.5176 2.51766C1.68369 3.3515 1.17076 4.18805 0.787441 5.17441C0.416602 6.1285 0.163066 7.21893 0.0902344 8.81549C0.0172266 10.4154 0 10.9262 0 15C0 19.0737 0.0172266 19.5845 0.0902344 21.1844C0.163066 22.781 0.416602 23.8714 0.787441 24.8255C1.17076 25.8118 1.68369 26.6484 2.5176 27.4823C3.35144 28.3162 4.18799 28.8291 5.17436 29.2124C6.1285 29.5832 7.21893 29.8368 8.81549 29.9096C10.4154 29.9826 10.9262 29.9999 15 29.9999C19.0737 29.9999 19.5845 29.9826 21.1844 29.9096C22.781 29.8368 23.8714 29.5832 24.8255 29.2124C25.8118 28.8291 26.6484 28.3162 27.4823 27.4823C28.3162 26.6484 28.8291 25.8118 29.2124 24.8255C29.5832 23.8714 29.8368 22.781 29.9096 21.1844C29.9826 19.5845 29.9999 19.0737 29.9999 15C29.9999 10.9262 29.9826 10.4154 29.9096 8.81549C29.8368 7.21893 29.5832 6.1285 29.2124 5.17441C28.8291 4.18805 28.3162 3.3515 27.4823 2.51766C26.6484 1.68375 25.8118 1.17082 24.8255 0.7875C23.8714 0.41666 22.781 0.163125 21.1844 0.090293C19.5845 0.0172852 19.0737 0 15 0ZM15 2.70275C19.0051 2.70275 19.4795 2.71799 21.0612 2.79018C22.5237 2.85691 23.3179 3.10125 23.8465 3.30662C24.5466 3.57873 25.0463 3.90381 25.5712 4.42869C26.0961 4.95357 26.4212 5.45332 26.6933 6.1534C26.8987 6.68197 27.143 7.47621 27.2098 8.93865C27.2819 10.5204 27.2972 10.9948 27.2972 15C27.2972 19.0051 27.2819 19.4795 27.2098 21.0612C27.143 22.5237 26.8987 23.3179 26.6933 23.8465C26.4212 24.5466 26.0961 25.0463 25.5712 25.5712C25.0463 26.0961 24.5466 26.4212 23.8465 26.6933C23.3179 26.8987 22.5237 27.143 21.0612 27.2097C19.4798 27.2819 19.0054 27.2972 15 27.2972C10.9945 27.2972 10.5202 27.2819 8.93865 27.2097C7.47621 27.143 6.68197 26.8987 6.1534 26.6933C5.45326 26.4212 4.95357 26.0961 4.42863 25.5712C3.90375 25.0463 3.57867 24.5466 3.30662 23.8465C3.10119 23.3179 2.85686 22.5237 2.79012 21.0612C2.71793 19.4795 2.7027 19.0051 2.7027 15C2.7027 10.9948 2.71793 10.5204 2.79012 8.93865C2.85686 7.47621 3.10119 6.68197 3.30662 6.1534C3.57867 5.45332 3.90375 4.95357 4.42863 4.42869C4.95357 3.90381 5.45326 3.57873 6.1534 3.30662C6.68197 3.10125 7.47621 2.85691 8.93865 2.79018C10.5204 2.71799 10.9948 2.70275 15 2.70275Z" fill="white"/>
</g>
<defs>
<clipPath id="clip0_0_817">
<rect width="30" height="30" fill="white"/>
</clipPath>
</defs>
</svg>
