<svg width="34" height="33" viewBox="0 0 34 33" fill="none" xmlns="http://www.w3.org/2000/svg">
<path d="M17.0598 32.9517C8.16818 32.9491 0.959419 25.724 0.969738 16.8255C0.980057 7.9511 8.20429 0.747504 17.0847 0.757824C25.9643 0.768143 33.1645 7.98377 33.1593 16.8668C33.1533 25.7464 25.9394 32.9543 17.0607 32.9517H17.0598ZM26.9773 16.8685H27.0066C27.0066 15.6672 27.0152 14.465 27.0023 13.2637C26.9971 12.7933 26.9799 12.3178 26.9103 11.8534C26.5998 9.79478 25.5825 8.25895 23.5858 7.479C22.7577 7.15567 21.8891 7.01722 21.0051 7.01378C18.4847 7.00432 15.9643 7.00346 13.443 7.0155C12.9089 7.01808 12.3689 7.0499 11.8426 7.13761C9.81407 7.47556 8.31092 8.51091 7.56021 10.487C7.25235 11.2971 7.12509 12.1432 7.12423 13.0083C7.12251 15.5081 7.11907 18.0071 7.12766 20.5069C7.12938 20.9661 7.15174 21.4313 7.22226 21.8845C7.51893 23.7961 8.43389 25.2786 10.2475 26.1041C11.1384 26.51 12.0894 26.6854 13.0603 26.6915C15.7312 26.7069 18.4021 26.7087 21.0722 26.6915C22.1093 26.6846 23.1206 26.4902 24.0587 26.0207C25.9833 25.0576 26.8311 23.3859 26.9593 21.3393C27.0521 19.8542 26.9773 18.3588 26.9773 16.8677V16.8685Z" fill="#000000"/>
<path d="M17.0723 8.87434C18.3811 8.87434 19.6899 8.86144 20.9987 8.88122C21.4356 8.8881 21.8793 8.93711 22.305 9.03429C23.8846 9.39459 24.9054 10.546 25.1066 12.1661C25.1504 12.5161 25.1719 12.8713 25.1728 13.2247C25.178 15.6927 25.1943 18.1615 25.1625 20.6287C25.1547 21.2297 25.0619 21.8558 24.8701 22.4233C24.3748 23.8921 23.2586 24.6737 21.752 24.758C19.88 24.8621 18.0002 24.8526 16.1238 24.8578C14.8804 24.8612 13.6335 24.8552 12.3943 24.7649C10.5016 24.6273 9.23065 23.3434 9.01481 21.4456C8.97697 21.1162 8.95547 20.7826 8.95461 20.4515C8.94945 17.9723 8.93397 15.494 8.96579 13.0149C8.97353 12.4353 9.07414 11.8333 9.25988 11.2847C9.75692 9.81424 10.874 9.06008 12.378 8.94657C13.6808 8.84854 14.993 8.8709 16.301 8.84252C16.5581 8.8365 16.8161 8.84252 17.0732 8.84252V8.8752L17.0723 8.87434ZM17.0439 22.0862C19.9144 22.1138 22.274 19.7877 22.2955 16.9078C22.3179 14.0133 20.0253 11.6596 17.1488 11.6218C14.2277 11.584 11.8655 13.8851 11.8328 16.8003C11.8001 19.7103 14.115 22.0579 17.0439 22.0862ZM22.3445 12.6881C22.9181 12.6812 23.379 12.2091 23.3713 11.6373C23.3635 11.0628 22.8983 10.6054 22.3222 10.6062C21.734 10.6071 21.2627 11.0904 21.2799 11.6751C21.2971 12.2547 21.7606 12.6958 22.3437 12.689L22.3445 12.6881Z" fill="#000000"/>
<path d="M17.1102 13.48C18.9926 13.517 20.4785 15.0433 20.4381 16.8999C20.3977 18.7849 18.8765 20.2657 17.019 20.2287C15.1401 20.1908 13.6498 18.661 13.6903 16.8087C13.7307 14.9255 15.2527 13.4439 17.1102 13.4808V13.48Z" fill="#000000"/>
</svg>
