<svg width="54" height="54" viewBox="0 0 54 54" fill="none" xmlns="http://www.w3.org/2000/svg">
<circle cx="27" cy="27" r="27" transform="rotate(180 27 27)" fill="#1F2227"/>
<path fill-rule="evenodd" clip-rule="evenodd" d="M14.7051 27.2934C14.7051 27.4571 14.7725 27.6134 14.8847 27.7311L20.9543 33.8621C21.1941 34.1043 21.5822 34.1036 21.8213 33.8621C22.0611 33.6205 22.0611 33.2281 21.8213 32.9865L16.7978 27.9126H38.1261C38.4646 27.9126 38.7393 27.6355 38.7393 27.2934C38.7393 26.9512 38.4646 26.6741 38.1261 26.6741H16.7984L21.8213 21.6002C22.0611 21.3587 22.0605 20.9662 21.8213 20.7247C21.5816 20.4831 21.1935 20.4831 20.9543 20.7247L14.8847 26.8556C14.7701 26.9715 14.7069 27.1309 14.7051 27.2934Z" fill="white"/>
</svg>
