<svg width="54" height="54" viewBox="0 0 54 54" fill="none" xmlns="http://www.w3.org/2000/svg">
<circle cx="27" cy="27" r="27" transform="matrix(1 0 0 -1 0 54)" fill="#1F2227"/>
<path fill-rule="evenodd" clip-rule="evenodd" d="M39.2949 27.2934C39.2949 27.4571 39.2275 27.6134 39.1153 27.7311L33.0457 33.8621C32.8059 34.1043 32.4178 34.1036 32.1787 33.8621C31.9389 33.6205 31.9389 33.2281 32.1787 32.9865L37.2022 27.9126H15.8739C15.5354 27.9126 15.2607 27.6355 15.2607 27.2934C15.2607 26.9512 15.5354 26.6741 15.8739 26.6741H37.2016L32.1787 21.6002C31.9389 21.3587 31.9395 20.9662 32.1787 20.7247C32.4184 20.4831 32.8065 20.4831 33.0457 20.7247L39.1153 26.8556C39.2299 26.9715 39.2931 27.1309 39.2949 27.2934Z" fill="white"/>
</svg>
