<svg width="33" height="33" viewBox="0 0 33 33" fill="none" xmlns="http://www.w3.org/2000/svg">
<path d="M15.4728 0C16.1601 0 16.8482 0 17.5355 0C18.1401 0.0826591 18.7472 0.145517 19.3475 0.249701C27.9494 1.74618 33.9186 9.73396 32.8834 18.4114C32.3142 23.1824 30.0414 27.0071 26.177 29.8408C22.6529 32.4247 18.6706 33.402 14.3403 32.8518C11.0254 32.4308 8.1033 31.0824 5.60229 28.8635C2.7344 26.3183 0.943049 23.1523 0.257512 19.3741C0.146413 18.7636 0.0844004 18.1445 0 17.5298V15.4676C0.04909 15.0646 0.0912946 14.6608 0.149858 14.2587C0.67004 10.6622 2.1858 7.55039 4.73245 4.95782C7.20331 2.44275 10.1823 0.864477 13.6608 0.253144C14.2611 0.147237 14.8682 0.0835201 15.472 0H15.4728ZM7.29461 22.3291C7.4169 22.4135 7.45049 22.4402 7.48666 22.4609C10.8575 24.3922 14.3679 24.6359 17.8412 22.9336C21.7675 21.0092 23.6554 17.6546 23.8552 13.3322C23.875 12.8965 23.9706 12.6124 24.3254 12.3472C24.8628 11.9451 25.3046 11.4354 25.687 10.8481C25.0101 11.0298 24.3685 11.202 23.7277 11.3742L23.689 11.295C24.4046 10.7999 24.9343 10.1671 25.2047 9.36717C24.5183 9.61601 23.8397 9.86312 23.1602 10.1077C22.9526 10.1826 22.8002 10.1343 22.621 9.97764C21.473 8.97454 20.1527 8.6904 18.7257 9.23543C17.3029 9.77874 16.4865 10.8542 16.3013 12.373C16.2522 12.7803 16.2936 13.1979 16.2936 13.6388C13.1647 13.4175 10.5914 12.0898 8.53736 9.68834C8.15497 10.3255 8.00081 10.9962 8.02751 11.7049C8.07402 12.9499 8.63382 13.9349 9.62165 14.6935L9.57342 14.7839C9.05065 14.6384 8.52875 14.492 7.97498 14.3379C8.11536 16.2313 9.08768 17.4514 10.892 18.0274L10.8799 18.1049H9.33141C9.5028 18.6517 9.76892 19.0951 10.1237 19.4869C10.8325 20.2696 11.7334 20.6631 12.8538 20.7552C11.1805 22.0063 9.37706 22.4979 7.29461 22.3283V22.3291Z" fill="#000000"/>
</svg>
