<svg width="324" height="84" viewBox="0 0 324 84" fill="none" xmlns="http://www.w3.org/2000/svg">
  <path
    d="M71.8984 34V16.8203H84.3203V18.8477H74.1719V24.1094H83.6758V26.125H74.1719V31.9727H84.7188V34H71.8984ZM87.7891 34V16.8203H91.2109L95.2773 28.9844C95.6523 30.1172 95.9258 30.9648 96.0977 31.5273C96.293 30.9023 96.5977 29.9844 97.0117 28.7734L101.125 16.8203H104.184V34H101.992V19.6211L97 34H94.9492L89.9805 19.375V34H87.7891ZM105.965 34L112.562 16.8203H115.012L122.043 34H119.453L117.449 28.7969H110.266L108.379 34H105.965ZM110.922 26.9453H116.746L114.953 22.1875C114.406 20.7422 114 19.5547 113.734 18.625C113.516 19.7266 113.207 20.8203 112.809 21.9062L110.922 26.9453ZM124.246 34V16.8203H126.52V34H124.246ZM130.445 34V16.8203H132.719V31.9727H141.18V34H130.445ZM71.2617 71V57.3994H72.9316V65.1553L76.8838 61.1475H79.0454L75.2788 64.8027L79.4258 71H77.3662L74.1099 65.9624L72.9316 67.0942V71H71.2617ZM80.1309 66.0737C80.1309 64.2492 80.638 62.8978 81.6523 62.0195C82.4997 61.2897 83.5326 60.9248 84.751 60.9248C86.1055 60.9248 87.2126 61.3701 88.0723 62.2607C88.932 63.1452 89.3618 64.3698 89.3618 65.9346C89.3618 67.2025 89.1701 68.2013 88.7866 68.9312C88.4093 69.6548 87.8558 70.2176 87.126 70.6196C86.4023 71.0216 85.6107 71.2227 84.751 71.2227C83.3717 71.2227 82.2554 70.7804 81.4019 69.896C80.5545 69.0116 80.1309 67.7375 80.1309 66.0737ZM81.8472 66.0737C81.8472 67.3354 82.1224 68.2817 82.6729 68.9126C83.2233 69.5373 83.916 69.8496 84.751 69.8496C85.5798 69.8496 86.2694 69.5342 86.8198 68.9033C87.3703 68.2725 87.6455 67.3107 87.6455 66.0181C87.6455 64.7996 87.3672 63.8781 86.8105 63.2534C86.2601 62.6226 85.5736 62.3071 84.751 62.3071C83.916 62.3071 83.2233 62.6195 82.6729 63.2441C82.1224 63.8688 81.8472 64.812 81.8472 66.0737ZM97.7207 71V69.7568C97.096 70.734 96.1776 71.2227 94.9653 71.2227C94.1799 71.2227 93.4562 71.0062 92.7944 70.5732C92.1388 70.1403 91.6286 69.5373 91.2637 68.7642C90.9049 67.9849 90.7256 67.0911 90.7256 66.083C90.7256 65.0996 90.8895 64.209 91.2173 63.4111C91.5451 62.6071 92.0368 61.9917 92.6924 61.5649C93.348 61.1382 94.0809 60.9248 94.8911 60.9248C95.4849 60.9248 96.0137 61.0516 96.4775 61.3052C96.9414 61.5526 97.3187 61.8773 97.6094 62.2793V57.3994H99.27V71H97.7207ZM92.4419 66.083C92.4419 67.3447 92.7078 68.2879 93.2397 68.9126C93.7716 69.5373 94.3994 69.8496 95.123 69.8496C95.8529 69.8496 96.4714 69.5527 96.9785 68.959C97.4919 68.359 97.7485 67.4468 97.7485 66.2222C97.7485 64.8739 97.4888 63.8843 96.9692 63.2534C96.4497 62.6226 95.8096 62.3071 95.0488 62.3071C94.3066 62.3071 93.6851 62.6102 93.1841 63.2163C92.6893 63.8224 92.4419 64.778 92.4419 66.083ZM101.914 59.3198V57.3994H103.584V59.3198H101.914ZM101.914 71V61.1475H103.584V71H101.914ZM112.564 69.7847C111.946 70.3104 111.349 70.6815 110.774 70.8979C110.205 71.1144 109.593 71.2227 108.937 71.2227C107.855 71.2227 107.023 70.9598 106.441 70.4341C105.86 69.9022 105.569 69.2249 105.569 68.4023C105.569 67.9199 105.678 67.4808 105.894 67.085C106.117 66.6829 106.404 66.3613 106.757 66.1201C107.116 65.8789 107.518 65.6965 107.963 65.5728C108.291 65.4862 108.785 65.4027 109.447 65.3223C110.796 65.1615 111.788 64.9697 112.425 64.7471C112.431 64.5182 112.435 64.3729 112.435 64.311C112.435 63.6307 112.277 63.1514 111.961 62.873C111.535 62.4958 110.901 62.3071 110.06 62.3071C109.274 62.3071 108.693 62.4463 108.315 62.7246C107.944 62.9967 107.669 63.4823 107.49 64.1812L105.857 63.9585C106.005 63.2596 106.25 62.6968 106.59 62.27C106.93 61.8371 107.422 61.5062 108.065 61.2773C108.708 61.0423 109.453 60.9248 110.301 60.9248C111.142 60.9248 111.825 61.0238 112.351 61.2217C112.877 61.4196 113.263 61.6701 113.511 61.9731C113.758 62.27 113.931 62.6473 114.03 63.105C114.086 63.3895 114.114 63.9028 114.114 64.645V66.8716C114.114 68.424 114.148 69.4074 114.216 69.8218C114.29 70.23 114.432 70.6227 114.643 71H112.898C112.725 70.6536 112.614 70.2485 112.564 69.7847ZM112.425 66.0552C111.819 66.3026 110.91 66.5129 109.698 66.686C109.011 66.785 108.526 66.8963 108.241 67.02C107.957 67.1437 107.737 67.3262 107.583 67.5674C107.428 67.8024 107.351 68.0653 107.351 68.356C107.351 68.8013 107.518 69.1724 107.852 69.4692C108.192 69.7661 108.687 69.9146 109.336 69.9146C109.979 69.9146 110.551 69.7754 111.052 69.4971C111.553 69.2126 111.921 68.826 112.156 68.3374C112.336 67.9601 112.425 67.4035 112.425 66.6675V66.0552ZM116.721 71V57.3994H118.391V65.1553L122.343 61.1475H124.504L120.738 64.8027L124.885 71H122.825L119.569 65.9624L118.391 67.0942V71H116.721ZM126.221 71V57.3994H127.891V65.1553L131.843 61.1475H134.004L130.238 64.8027L134.385 71H132.325L129.069 65.9624L127.891 67.0942V71H126.221ZM135.711 71V61.1475H137.214V62.5483C137.938 61.466 138.983 60.9248 140.35 60.9248C140.944 60.9248 141.488 61.033 141.983 61.2495C142.484 61.4598 142.858 61.7381 143.105 62.0845C143.353 62.4308 143.526 62.8421 143.625 63.3184C143.687 63.6276 143.718 64.1688 143.718 64.9419V71H142.048V65.0068C142.048 64.3265 141.983 63.8193 141.853 63.4854C141.723 63.1452 141.491 62.8761 141.157 62.6782C140.829 62.4741 140.443 62.3721 139.998 62.3721C139.286 62.3721 138.671 62.5978 138.151 63.0493C137.638 63.5008 137.381 64.3574 137.381 65.6191V71H135.711ZM146.297 59.3198V57.3994H147.967V59.3198H146.297ZM146.297 71V61.1475H147.967V71H146.297ZM150.917 71V62.4463H149.442V61.1475H150.917V60.0991C150.917 59.4373 150.976 58.9456 151.093 58.624C151.254 58.1911 151.535 57.8416 151.938 57.5757C152.346 57.3035 152.915 57.1675 153.645 57.1675C154.115 57.1675 154.634 57.2231 155.203 57.3345L154.953 58.791C154.606 58.7292 154.278 58.6982 153.969 58.6982C153.462 58.6982 153.103 58.8065 152.893 59.0229C152.683 59.2394 152.578 59.6445 152.578 60.2383V61.1475H154.498V62.4463H152.578V71H150.917ZM162.551 67.8271L164.276 68.0405C164.004 69.0487 163.5 69.8311 162.764 70.3877C162.028 70.9443 161.088 71.2227 159.944 71.2227C158.503 71.2227 157.359 70.7804 156.511 69.896C155.67 69.0054 155.25 67.7591 155.25 66.1572C155.25 64.4997 155.676 63.2132 156.53 62.2979C157.383 61.3825 158.49 60.9248 159.851 60.9248C161.168 60.9248 162.245 61.3732 163.08 62.27C163.915 63.1668 164.332 64.4285 164.332 66.0552C164.332 66.1541 164.329 66.3026 164.323 66.5005H156.975C157.037 67.5828 157.343 68.4116 157.894 68.9868C158.444 69.562 159.131 69.8496 159.953 69.8496C160.565 69.8496 161.088 69.6888 161.521 69.3672C161.954 69.0456 162.297 68.5322 162.551 67.8271ZM157.068 65.1274H162.569C162.495 64.2987 162.285 63.6771 161.938 63.2627C161.407 62.6195 160.717 62.2979 159.87 62.2979C159.103 62.2979 158.456 62.5545 157.931 63.0679C157.411 63.5812 157.124 64.2677 157.068 65.1274ZM172.812 67.3911L174.454 67.6045C174.274 68.7363 173.813 69.6239 173.071 70.2671C172.335 70.9041 171.429 71.2227 170.353 71.2227C169.005 71.2227 167.919 70.7835 167.097 69.9053C166.28 69.0208 165.872 67.756 165.872 66.1108C165.872 65.047 166.048 64.1162 166.401 63.3184C166.753 62.5205 167.288 61.9237 168.006 61.5278C168.729 61.1258 169.515 60.9248 170.362 60.9248C171.432 60.9248 172.307 61.1969 172.988 61.7412C173.668 62.2793 174.104 63.0462 174.296 64.042L172.672 64.2925C172.518 63.6307 172.243 63.1328 171.847 62.7988C171.457 62.4648 170.984 62.2979 170.427 62.2979C169.586 62.2979 168.903 62.6009 168.377 63.207C167.851 63.807 167.588 64.7594 167.588 66.0645C167.588 67.388 167.842 68.3498 168.349 68.9497C168.856 69.5496 169.518 69.8496 170.334 69.8496C170.99 69.8496 171.537 69.6486 171.977 69.2466C172.416 68.8446 172.694 68.2261 172.812 67.3911ZM175.261 66.0737C175.261 64.2492 175.768 62.8978 176.782 62.0195C177.63 61.2897 178.662 60.9248 179.881 60.9248C181.235 60.9248 182.342 61.3701 183.202 62.2607C184.062 63.1452 184.492 64.3698 184.492 65.9346C184.492 67.2025 184.3 68.2013 183.917 68.9312C183.539 69.6548 182.986 70.2176 182.256 70.6196C181.532 71.0216 180.741 71.2227 179.881 71.2227C178.502 71.2227 177.385 70.7804 176.532 69.896C175.684 69.0116 175.261 67.7375 175.261 66.0737ZM176.977 66.0737C176.977 67.3354 177.252 68.2817 177.803 68.9126C178.353 69.5373 179.046 69.8496 179.881 69.8496C180.71 69.8496 181.399 69.5342 181.95 68.9033C182.5 68.2725 182.775 67.3107 182.775 66.0181C182.775 64.7996 182.497 63.8781 181.94 63.2534C181.39 62.6226 180.703 62.3071 179.881 62.3071C179.046 62.3071 178.353 62.6195 177.803 63.2441C177.252 63.8688 176.977 64.812 176.977 66.0737ZM195.977 69.4878C195.575 69.9517 195.124 70.3258 194.623 70.6104C194.128 70.8887 193.63 71.0278 193.129 71.0278C192.578 71.0278 192.043 70.867 191.524 70.5454C191.004 70.2238 190.581 69.729 190.253 69.061C189.931 68.3931 189.771 67.6602 189.771 66.8623C189.771 65.8789 190.021 64.8955 190.522 63.9121C191.029 62.9225 191.657 62.1803 192.405 61.6855C193.154 61.1908 193.88 60.9434 194.585 60.9434C195.124 60.9434 195.637 61.0856 196.125 61.3701C196.614 61.6484 197.035 62.0752 197.387 62.6504L197.703 61.2124H199.363L198.027 67.4375C197.842 68.3034 197.749 68.7827 197.749 68.8755C197.749 69.0425 197.811 69.1878 197.935 69.3115C198.064 69.429 198.219 69.4878 198.398 69.4878C198.726 69.4878 199.156 69.2992 199.688 68.9219C200.393 68.4271 200.95 67.7653 201.358 66.9365C201.772 66.1016 201.979 65.2419 201.979 64.3574C201.979 63.3245 201.714 62.3597 201.182 61.4629C200.656 60.5661 199.867 59.8486 198.816 59.3105C197.771 58.7725 196.614 58.5034 195.346 58.5034C193.899 58.5034 192.575 58.8436 191.375 59.5239C190.182 60.1981 189.254 61.1691 188.592 62.437C187.937 63.6987 187.609 65.0532 187.609 66.5005C187.609 68.0158 187.937 69.3208 188.592 70.4155C189.254 71.5103 190.207 72.3174 191.45 72.8369C192.699 73.3626 194.081 73.6255 195.597 73.6255C197.217 73.6255 198.575 73.3534 199.669 72.8091C200.764 72.2648 201.584 71.603 202.128 70.8237H203.807C203.492 71.4731 202.951 72.1349 202.184 72.8091C201.417 73.4832 200.504 74.0151 199.447 74.4048C198.389 74.8006 197.115 74.9985 195.625 74.9985C194.251 74.9985 192.984 74.8223 191.821 74.4697C190.664 74.1172 189.678 73.5853 188.861 72.874C188.045 72.1689 187.43 71.3556 187.015 70.4341C186.496 69.2651 186.236 68.0034 186.236 66.6489C186.236 65.1398 186.545 63.7018 187.164 62.335C187.918 60.6589 188.988 59.3755 190.374 58.4849C191.765 57.5942 193.451 57.1489 195.43 57.1489C196.964 57.1489 198.34 57.4644 199.558 58.0952C200.783 58.7199 201.748 59.6538 202.453 60.897C203.053 61.967 203.353 63.1297 203.353 64.3853C203.353 66.1789 202.722 67.7715 201.46 69.1631C200.334 70.4124 199.104 71.0371 197.768 71.0371C197.341 71.0371 196.994 70.9722 196.729 70.8423C196.469 70.7124 196.277 70.5269 196.153 70.2856C196.073 70.131 196.014 69.8651 195.977 69.4878ZM191.487 66.9736C191.487 67.821 191.688 68.4797 192.09 68.9497C192.492 69.4198 192.953 69.6548 193.472 69.6548C193.819 69.6548 194.183 69.5527 194.567 69.3486C194.95 69.1383 195.315 68.8291 195.662 68.4209C196.014 68.0127 196.302 67.4963 196.524 66.8716C196.747 66.2407 196.858 65.6099 196.858 64.979C196.858 64.1379 196.648 63.4854 196.228 63.0215C195.813 62.5576 195.306 62.3257 194.706 62.3257C194.31 62.3257 193.936 62.4277 193.583 62.6318C193.237 62.8298 192.9 63.1514 192.572 63.5967C192.244 64.042 191.982 64.5832 191.784 65.2202C191.586 65.8573 191.487 66.4417 191.487 66.9736ZM205.449 71.8164L207.073 72.0576C207.141 72.5586 207.329 72.9235 207.639 73.1523C208.053 73.4616 208.619 73.6162 209.336 73.6162C210.11 73.6162 210.706 73.4616 211.127 73.1523C211.548 72.8431 211.832 72.4102 211.98 71.8535C212.067 71.5133 212.107 70.799 212.101 69.7104C211.371 70.5701 210.462 71 209.374 71C208.019 71 206.971 70.5114 206.229 69.5342C205.486 68.557 205.115 67.3849 205.115 66.0181C205.115 65.078 205.285 64.2121 205.625 63.4204C205.966 62.6226 206.457 62.0072 207.101 61.5742C207.75 61.1413 208.511 60.9248 209.383 60.9248C210.546 60.9248 211.504 61.3949 212.259 62.335V61.1475H213.799V69.6641C213.799 71.1979 213.641 72.2834 213.326 72.9204C213.016 73.5636 212.522 74.0708 211.841 74.4419C211.167 74.813 210.335 74.9985 209.346 74.9985C208.171 74.9985 207.221 74.7326 206.498 74.2007C205.774 73.675 205.424 72.8802 205.449 71.8164ZM206.832 65.8975C206.832 67.1901 207.088 68.1333 207.602 68.7271C208.115 69.3208 208.758 69.6177 209.531 69.6177C210.298 69.6177 210.941 69.3239 211.461 68.7363C211.98 68.1426 212.24 67.2148 212.24 65.9531C212.24 64.7471 211.971 63.8379 211.433 63.2256C210.901 62.6133 210.258 62.3071 209.503 62.3071C208.761 62.3071 208.13 62.6102 207.611 63.2163C207.091 63.8162 206.832 64.71 206.832 65.8975ZM216.332 71V61.1475H217.825V62.5298C218.134 62.0474 218.546 61.6608 219.059 61.3701C219.572 61.0732 220.157 60.9248 220.812 60.9248C221.542 60.9248 222.139 61.0763 222.603 61.3794C223.073 61.6825 223.404 62.1061 223.596 62.6504C224.375 61.5 225.389 60.9248 226.639 60.9248C227.616 60.9248 228.367 61.1969 228.893 61.7412C229.419 62.2793 229.682 63.1112 229.682 64.2368V71H228.021V64.7935C228.021 64.1255 227.965 63.6462 227.854 63.3555C227.749 63.0586 227.554 62.8205 227.27 62.6411C226.985 62.4618 226.651 62.3721 226.268 62.3721C225.575 62.3721 225 62.604 224.542 63.0679C224.084 63.5256 223.855 64.2616 223.855 65.2759V71H222.186V64.5986C222.186 63.8564 222.049 63.2998 221.777 62.9287C221.505 62.5576 221.06 62.3721 220.441 62.3721C219.971 62.3721 219.535 62.4958 219.133 62.7432C218.737 62.9906 218.45 63.3524 218.271 63.8286C218.091 64.3049 218.001 64.9914 218.001 65.8882V71H216.332ZM238.588 69.7847C237.969 70.3104 237.373 70.6815 236.797 70.8979C236.228 71.1144 235.616 71.2227 234.96 71.2227C233.878 71.2227 233.046 70.9598 232.465 70.4341C231.883 69.9022 231.593 69.2249 231.593 68.4023C231.593 67.9199 231.701 67.4808 231.917 67.085C232.14 66.6829 232.428 66.3613 232.78 66.1201C233.139 65.8789 233.541 65.6965 233.986 65.5728C234.314 65.4862 234.809 65.4027 235.471 65.3223C236.819 65.1615 237.812 64.9697 238.449 64.7471C238.455 64.5182 238.458 64.3729 238.458 64.311C238.458 63.6307 238.3 63.1514 237.985 62.873C237.558 62.4958 236.924 62.3071 236.083 62.3071C235.298 62.3071 234.716 62.4463 234.339 62.7246C233.968 62.9967 233.693 63.4823 233.513 64.1812L231.88 63.9585C232.029 63.2596 232.273 62.6968 232.613 62.27C232.953 61.8371 233.445 61.5062 234.088 61.2773C234.732 61.0423 235.477 60.9248 236.324 60.9248C237.165 60.9248 237.849 61.0238 238.375 61.2217C238.9 61.4196 239.287 61.6701 239.534 61.9731C239.782 62.27 239.955 62.6473 240.054 63.105C240.109 63.3895 240.137 63.9028 240.137 64.645V66.8716C240.137 68.424 240.171 69.4074 240.239 69.8218C240.313 70.23 240.456 70.6227 240.666 71H238.922C238.749 70.6536 238.637 70.2485 238.588 69.7847ZM238.449 66.0552C237.843 66.3026 236.933 66.5129 235.721 66.686C235.035 66.785 234.549 66.8963 234.265 67.02C233.98 67.1437 233.761 67.3262 233.606 67.5674C233.451 67.8024 233.374 68.0653 233.374 68.356C233.374 68.8013 233.541 69.1724 233.875 69.4692C234.215 69.7661 234.71 69.9146 235.359 69.9146C236.003 69.9146 236.575 69.7754 237.076 69.4971C237.577 69.2126 237.945 68.826 238.18 68.3374C238.359 67.9601 238.449 67.4035 238.449 66.6675V66.0552ZM242.744 59.3198V57.3994H244.414V59.3198H242.744ZM242.744 71V61.1475H244.414V71H242.744ZM246.928 71V57.3994H248.598V71H246.928ZM251.669 71V69.0981H253.571V71H251.669ZM262.913 67.3911L264.555 67.6045C264.376 68.7363 263.915 69.6239 263.173 70.2671C262.437 70.9041 261.531 71.2227 260.455 71.2227C259.106 71.2227 258.021 70.7835 257.198 69.9053C256.382 69.0208 255.974 67.756 255.974 66.1108C255.974 65.047 256.15 64.1162 256.502 63.3184C256.855 62.5205 257.39 61.9237 258.107 61.5278C258.831 61.1258 259.617 60.9248 260.464 60.9248C261.534 60.9248 262.409 61.1969 263.089 61.7412C263.77 62.2793 264.206 63.0462 264.397 64.042L262.774 64.2925C262.619 63.6307 262.344 63.1328 261.948 62.7988C261.559 62.4648 261.085 62.2979 260.529 62.2979C259.688 62.2979 259.004 62.6009 258.479 63.207C257.953 63.807 257.69 64.7594 257.69 66.0645C257.69 67.388 257.944 68.3498 258.451 68.9497C258.958 69.5496 259.62 69.8496 260.436 69.8496C261.092 69.8496 261.639 69.6486 262.078 69.2466C262.517 68.8446 262.796 68.2261 262.913 67.3911ZM265.362 66.0737C265.362 64.2492 265.869 62.8978 266.884 62.0195C267.731 61.2897 268.764 60.9248 269.982 60.9248C271.337 60.9248 272.444 61.3701 273.304 62.2607C274.163 63.1452 274.593 64.3698 274.593 65.9346C274.593 67.2025 274.402 68.2013 274.018 68.9312C273.641 69.6548 273.087 70.2176 272.357 70.6196C271.634 71.0216 270.842 71.2227 269.982 71.2227C268.603 71.2227 267.487 70.7804 266.633 69.896C265.786 69.0116 265.362 67.7375 265.362 66.0737ZM267.079 66.0737C267.079 67.3354 267.354 68.2817 267.904 68.9126C268.455 69.5373 269.147 69.8496 269.982 69.8496C270.811 69.8496 271.501 69.5342 272.051 68.9033C272.602 68.2725 272.877 67.3107 272.877 66.0181C272.877 64.7996 272.599 63.8781 272.042 63.2534C271.492 62.6226 270.805 62.3071 269.982 62.3071C269.147 62.3071 268.455 62.6195 267.904 63.2441C267.354 63.8688 267.079 64.812 267.079 66.0737ZM276.56 71V61.1475H278.054V62.5298C278.363 62.0474 278.774 61.6608 279.288 61.3701C279.801 61.0732 280.385 60.9248 281.041 60.9248C281.771 60.9248 282.368 61.0763 282.832 61.3794C283.302 61.6825 283.632 62.1061 283.824 62.6504C284.604 61.5 285.618 60.9248 286.867 60.9248C287.844 60.9248 288.596 61.1969 289.122 61.7412C289.647 62.2793 289.91 63.1112 289.91 64.2368V71H288.25V64.7935C288.25 64.1255 288.194 63.6462 288.083 63.3555C287.977 63.0586 287.783 62.8205 287.498 62.6411C287.214 62.4618 286.88 62.3721 286.496 62.3721C285.803 62.3721 285.228 62.604 284.771 63.0679C284.313 63.5256 284.084 64.2616 284.084 65.2759V71H282.414V64.5986C282.414 63.8564 282.278 63.2998 282.006 62.9287C281.734 62.5576 281.288 62.3721 280.67 62.3721C280.2 62.3721 279.764 62.4958 279.362 62.7432C278.966 62.9906 278.678 63.3524 278.499 63.8286C278.32 64.3049 278.23 64.9914 278.23 65.8882V71H276.56Z"
    fill="white" />
  <path fill-rule="evenodd" clip-rule="evenodd"
    d="M30.515 21C37.0042 21 41.8974 26.2947 41.8974 33.3159V46.6997C41.8974 50.2931 40.6269 53.5397 38.3176 55.8431C36.2462 57.9068 33.5589 59 30.5462 59H11.3454C8.33856 59 5.65323 57.9087 3.57979 55.8431C1.27056 53.5397 0 50.2931 0 46.6997V33.3159C0 26.2947 4.89323 21 11.3825 21H30.515ZM30.515 23.9231H11.3825C6.48144 23.9231 2.92308 27.8731 2.92308 33.3159V46.6997C2.92308 49.5117 3.88964 52.0236 5.64349 53.7716C7.15569 55.2818 9.12974 56.0769 11.3513 56.0769H30.515C30.5189 56.073 30.5345 56.0769 30.5462 56.0769C32.7696 56.0769 34.7417 55.2818 36.2539 53.7716C38.0097 52.0236 38.9744 49.5117 38.9744 46.6997V33.3159C38.9744 27.8731 35.416 23.9231 30.515 23.9231ZM33.5862 32.9433C34.0948 33.5688 33.9993 34.4886 33.3737 34.9992L24.7136 42.038C23.6185 42.9071 22.3089 43.3417 21.0013 43.3417C19.6976 43.3417 18.3978 42.911 17.3105 42.0497L8.57046 35.0031C7.94103 34.4964 7.84359 33.5747 8.34831 32.9472C8.85692 32.3217 9.77672 32.2223 10.4042 32.727L19.1364 39.7658C20.2335 40.6349 21.7789 40.6349 22.8838 39.758L31.5283 32.7309C32.1558 32.2184 33.0756 32.3158 33.5862 32.9433Z"
    fill="white" />
</svg>
