<svg width="326" height="84" viewBox="0 0 326 84" fill="none" xmlns="http://www.w3.org/2000/svg">
  <path
    d="M73.9688 34V16.8203H85.5586V18.8477H76.2422V24.168H84.3047V26.1953H76.2422V34H73.9688ZM87.4688 27.7773C87.4688 25.4727 88.1094 23.7656 89.3906 22.6562C90.4609 21.7344 91.7656 21.2734 93.3047 21.2734C95.0156 21.2734 96.4141 21.8359 97.5 22.9609C98.5859 24.0781 99.1289 25.625 99.1289 27.6016C99.1289 29.2031 98.8867 30.4648 98.4023 31.3867C97.9258 32.3008 97.2266 33.0117 96.3047 33.5195C95.3906 34.0273 94.3906 34.2812 93.3047 34.2812C91.5625 34.2812 90.1523 33.7227 89.0742 32.6055C88.0039 31.4883 87.4688 29.8789 87.4688 27.7773ZM89.6367 27.7773C89.6367 29.3711 89.9844 30.5664 90.6797 31.3633C91.375 32.1523 92.25 32.5469 93.3047 32.5469C94.3516 32.5469 95.2227 32.1484 95.918 31.3516C96.6133 30.5547 96.9609 29.3398 96.9609 27.707C96.9609 26.168 96.6094 25.0039 95.9062 24.2148C95.2109 23.418 94.3438 23.0195 93.3047 23.0195C92.25 23.0195 91.375 23.4141 90.6797 24.2031C89.9844 24.9922 89.6367 26.1836 89.6367 27.7773ZM101.566 34V16.8203H103.676V34H101.566ZM106.91 34V16.8203H109.02V34H106.91ZM111.516 27.7773C111.516 25.4727 112.156 23.7656 113.438 22.6562C114.508 21.7344 115.812 21.2734 117.352 21.2734C119.062 21.2734 120.461 21.8359 121.547 22.9609C122.633 24.0781 123.176 25.625 123.176 27.6016C123.176 29.2031 122.934 30.4648 122.449 31.3867C121.973 32.3008 121.273 33.0117 120.352 33.5195C119.438 34.0273 118.438 34.2812 117.352 34.2812C115.609 34.2812 114.199 33.7227 113.121 32.6055C112.051 31.4883 111.516 29.8789 111.516 27.7773ZM113.684 27.7773C113.684 29.3711 114.031 30.5664 114.727 31.3633C115.422 32.1523 116.297 32.5469 117.352 32.5469C118.398 32.5469 119.27 32.1484 119.965 31.3516C120.66 30.5547 121.008 29.3398 121.008 27.707C121.008 26.168 120.656 25.0039 119.953 24.2148C119.258 23.418 118.391 23.0195 117.352 23.0195C116.297 23.0195 115.422 23.4141 114.727 24.2031C114.031 24.9922 113.684 26.1836 113.684 27.7773ZM127.957 34L124.148 21.5547H126.328L128.309 28.7383L129.047 31.4102C129.078 31.2773 129.293 30.4219 129.691 28.8438L131.672 21.5547H133.84L135.703 28.7734L136.324 31.1523L137.039 28.75L139.172 21.5547H141.223L137.332 34H135.141L133.16 26.5469L132.68 24.4258L130.16 34H127.957ZM149.262 25.6328C149.262 22.7812 150.027 20.5508 151.559 18.9414C153.09 17.3242 155.066 16.5156 157.488 16.5156C159.074 16.5156 160.504 16.8945 161.777 17.6523C163.051 18.4102 164.02 19.4688 164.684 20.8281C165.355 22.1797 165.691 23.7148 165.691 25.4336C165.691 27.1758 165.34 28.7344 164.637 30.1094C163.934 31.4844 162.938 32.5273 161.648 33.2383C160.359 33.9414 158.969 34.293 157.477 34.293C155.859 34.293 154.414 33.9023 153.141 33.1211C151.867 32.3398 150.902 31.2734 150.246 29.9219C149.59 28.5703 149.262 27.1406 149.262 25.6328ZM151.605 25.668C151.605 27.7383 152.16 29.3711 153.27 30.5664C154.387 31.7539 155.785 32.3477 157.465 32.3477C159.176 32.3477 160.582 31.7461 161.684 30.543C162.793 29.3398 163.348 27.6328 163.348 25.4219C163.348 24.0234 163.109 22.8047 162.633 21.7656C162.164 20.7188 161.473 19.9102 160.559 19.3398C159.652 18.7617 158.633 18.4727 157.5 18.4727C155.891 18.4727 154.504 19.0273 153.34 20.1367C152.184 21.2383 151.605 23.082 151.605 25.668ZM168.363 34V21.5547H170.262V23.3242C171.176 21.957 172.496 21.2734 174.223 21.2734C174.973 21.2734 175.66 21.4102 176.285 21.6836C176.918 21.9492 177.391 22.3008 177.703 22.7383C178.016 23.1758 178.234 23.6953 178.359 24.2969C178.438 24.6875 178.477 25.3711 178.477 26.3477V34H176.367V26.4297C176.367 25.5703 176.285 24.9297 176.121 24.5078C175.957 24.0781 175.664 23.7383 175.242 23.4883C174.828 23.2305 174.34 23.1016 173.777 23.1016C172.879 23.1016 172.102 23.3867 171.445 23.957C170.797 24.5273 170.473 25.6094 170.473 27.2031V34H168.363ZM82.771 69.4878C82.369 69.9517 81.9175 70.3258 81.4165 70.6104C80.9217 70.8887 80.4238 71.0278 79.9229 71.0278C79.3724 71.0278 78.8374 70.867 78.3179 70.5454C77.7983 70.2238 77.3747 69.729 77.0469 69.061C76.7253 68.3931 76.5645 67.6602 76.5645 66.8623C76.5645 65.8789 76.8149 64.8955 77.3159 63.9121C77.8231 62.9225 78.4508 62.1803 79.1992 61.6855C79.9476 61.1908 80.6743 60.9434 81.3794 60.9434C81.9175 60.9434 82.4308 61.0856 82.9194 61.3701C83.408 61.6484 83.8286 62.0752 84.1812 62.6504L84.4966 61.2124H86.1572L84.8213 67.4375C84.6357 68.3034 84.543 68.7827 84.543 68.8755C84.543 69.0425 84.6048 69.1878 84.7285 69.3115C84.8584 69.429 85.013 69.4878 85.1924 69.4878C85.5202 69.4878 85.95 69.2992 86.4819 68.9219C87.187 68.4271 87.7437 67.7653 88.1519 66.9365C88.5662 66.1016 88.7734 65.2419 88.7734 64.3574C88.7734 63.3245 88.5075 62.3597 87.9756 61.4629C87.4499 60.5661 86.6613 59.8486 85.6099 59.3105C84.5646 58.7725 83.408 58.5034 82.1401 58.5034C80.6929 58.5034 79.3693 58.8436 78.1694 59.5239C76.9757 60.1981 76.048 61.1691 75.3862 62.437C74.7306 63.6987 74.4028 65.0532 74.4028 66.5005C74.4028 68.0158 74.7306 69.3208 75.3862 70.4155C76.048 71.5103 77.0005 72.3174 78.2437 72.8369C79.493 73.3626 80.8753 73.6255 82.3906 73.6255C84.0111 73.6255 85.3687 73.3534 86.4634 72.8091C87.5581 72.2648 88.3776 71.603 88.9219 70.8237H90.6011C90.2856 71.4731 89.7445 72.1349 88.9775 72.8091C88.2106 73.4832 87.2983 74.0151 86.2407 74.4048C85.1831 74.8006 83.909 74.9985 82.4185 74.9985C81.0454 74.9985 79.7775 74.8223 78.6147 74.4697C77.4582 74.1172 76.4717 73.5853 75.6553 72.874C74.8389 72.1689 74.2235 71.3556 73.8091 70.4341C73.2896 69.2651 73.0298 68.0034 73.0298 66.6489C73.0298 65.1398 73.339 63.7018 73.9575 62.335C74.7121 60.6589 75.7821 59.3755 77.1675 58.4849C78.5591 57.5942 80.2445 57.1489 82.2236 57.1489C83.7575 57.1489 85.1336 57.4644 86.3521 58.0952C87.5767 58.7199 88.5415 59.6538 89.2466 60.897C89.8465 61.967 90.1465 63.1297 90.1465 64.3853C90.1465 66.1789 89.5156 67.7715 88.2539 69.1631C87.1283 70.4124 85.8975 71.0371 84.5615 71.0371C84.1348 71.0371 83.7884 70.9722 83.5225 70.8423C83.2627 70.7124 83.071 70.5269 82.9473 70.2856C82.8669 70.131 82.8081 69.8651 82.771 69.4878ZM78.2808 66.9736C78.2808 67.821 78.4818 68.4797 78.8838 68.9497C79.2858 69.4198 79.7466 69.6548 80.2661 69.6548C80.6125 69.6548 80.9774 69.5527 81.3608 69.3486C81.7443 69.1383 82.1092 68.8291 82.4556 68.4209C82.8081 68.0127 83.0957 67.4963 83.3184 66.8716C83.541 66.2407 83.6523 65.6099 83.6523 64.979C83.6523 64.1379 83.4421 63.4854 83.0215 63.0215C82.6071 62.5576 82.0999 62.3257 81.5 62.3257C81.1042 62.3257 80.73 62.4277 80.3774 62.6318C80.0311 62.8298 79.694 63.1514 79.3662 63.5967C79.0384 64.042 78.7756 64.5832 78.5776 65.2202C78.3797 65.8573 78.2808 66.4417 78.2808 66.9736ZM92.5586 71V57.3994H94.2285V65.1553L98.1807 61.1475H100.342L96.5757 64.8027L100.723 71H98.6631L95.4067 65.9624L94.2285 67.0942V71H92.5586ZM101.428 66.0737C101.428 64.2492 101.935 62.8978 102.949 62.0195C103.797 61.2897 104.829 60.9248 106.048 60.9248C107.402 60.9248 108.509 61.3701 109.369 62.2607C110.229 63.1452 110.659 64.3698 110.659 65.9346C110.659 67.2025 110.467 68.2013 110.083 68.9312C109.706 69.6548 109.153 70.2176 108.423 70.6196C107.699 71.0216 106.908 71.2227 106.048 71.2227C104.669 71.2227 103.552 70.7804 102.699 69.896C101.851 69.0116 101.428 67.7375 101.428 66.0737ZM103.144 66.0737C103.144 67.3354 103.419 68.2817 103.97 68.9126C104.52 69.5373 105.213 69.8496 106.048 69.8496C106.877 69.8496 107.566 69.5342 108.117 68.9033C108.667 68.2725 108.942 67.3107 108.942 66.0181C108.942 64.7996 108.664 63.8781 108.107 63.2534C107.557 62.6226 106.87 62.3071 106.048 62.3071C105.213 62.3071 104.52 62.6195 103.97 63.2441C103.419 63.8688 103.144 64.812 103.144 66.0737ZM119.018 71V69.7568C118.393 70.734 117.474 71.2227 116.262 71.2227C115.477 71.2227 114.753 71.0062 114.091 70.5732C113.436 70.1403 112.925 69.5373 112.561 68.7642C112.202 67.9849 112.022 67.0911 112.022 66.083C112.022 65.0996 112.186 64.209 112.514 63.4111C112.842 62.6071 113.334 61.9917 113.989 61.5649C114.645 61.1382 115.378 60.9248 116.188 60.9248C116.782 60.9248 117.311 61.0516 117.774 61.3052C118.238 61.5526 118.616 61.8773 118.906 62.2793V57.3994H120.567V71H119.018ZM113.739 66.083C113.739 67.3447 114.005 68.2879 114.537 68.9126C115.069 69.5373 115.696 69.8496 116.42 69.8496C117.15 69.8496 117.768 69.5527 118.275 68.959C118.789 68.359 119.045 67.4468 119.045 66.2222C119.045 64.8739 118.786 63.8843 118.266 63.2534C117.747 62.6226 117.106 62.3071 116.346 62.3071C115.604 62.3071 114.982 62.6102 114.481 63.2163C113.986 63.8224 113.739 64.778 113.739 66.083ZM123.211 59.3198V57.3994H124.881V59.3198H123.211ZM123.211 71V61.1475H124.881V71H123.211ZM133.861 69.7847C133.243 70.3104 132.646 70.6815 132.071 70.8979C131.502 71.1144 130.889 71.2227 130.234 71.2227C129.152 71.2227 128.32 70.9598 127.738 70.4341C127.157 69.9022 126.866 69.2249 126.866 68.4023C126.866 67.9199 126.974 67.4808 127.191 67.085C127.414 66.6829 127.701 66.3613 128.054 66.1201C128.412 65.8789 128.814 65.6965 129.26 65.5728C129.588 65.4862 130.082 65.4027 130.744 65.3223C132.092 65.1615 133.085 64.9697 133.722 64.7471C133.728 64.5182 133.731 64.3729 133.731 64.311C133.731 63.6307 133.574 63.1514 133.258 62.873C132.832 62.4958 132.198 62.3071 131.356 62.3071C130.571 62.3071 129.99 62.4463 129.612 62.7246C129.241 62.9967 128.966 63.4823 128.787 64.1812L127.154 63.9585C127.302 63.2596 127.547 62.6968 127.887 62.27C128.227 61.8371 128.719 61.5062 129.362 61.2773C130.005 61.0423 130.75 60.9248 131.598 60.9248C132.439 60.9248 133.122 61.0238 133.648 61.2217C134.174 61.4196 134.56 61.6701 134.808 61.9731C135.055 62.27 135.228 62.6473 135.327 63.105C135.383 63.3895 135.411 63.9028 135.411 64.645V66.8716C135.411 68.424 135.445 69.4074 135.513 69.8218C135.587 70.23 135.729 70.6227 135.939 71H134.195C134.022 70.6536 133.911 70.2485 133.861 69.7847ZM133.722 66.0552C133.116 66.3026 132.207 66.5129 130.995 66.686C130.308 66.785 129.823 66.8963 129.538 67.02C129.254 67.1437 129.034 67.3262 128.879 67.5674C128.725 67.8024 128.647 68.0653 128.647 68.356C128.647 68.8013 128.814 69.1724 129.148 69.4692C129.489 69.7661 129.983 69.9146 130.633 69.9146C131.276 69.9146 131.848 69.7754 132.349 69.4971C132.85 69.2126 133.218 68.826 133.453 68.3374C133.632 67.9601 133.722 67.4035 133.722 66.6675V66.0552ZM138.018 71V57.3994H139.688V65.1553L143.64 61.1475H145.801L142.035 64.8027L146.182 71H144.122L140.866 65.9624L139.688 67.0942V71H138.018ZM145.968 74.7759V73.5698H157.036V74.7759H145.968ZM158.094 71V57.3994H159.764V65.1553L163.716 61.1475H165.877L162.111 64.8027L166.258 71H164.198L160.942 65.9624L159.764 67.0942V71H158.094ZM167.584 71V61.1475H169.087V62.5483C169.811 61.466 170.856 60.9248 172.223 60.9248C172.817 60.9248 173.361 61.033 173.856 61.2495C174.357 61.4598 174.731 61.7381 174.979 62.0845C175.226 62.4308 175.399 62.8421 175.498 63.3184C175.56 63.6276 175.591 64.1688 175.591 64.9419V71H173.921V65.0068C173.921 64.3265 173.856 63.8193 173.726 63.4854C173.596 63.1452 173.364 62.8761 173.03 62.6782C172.702 62.4741 172.316 62.3721 171.871 62.3721C171.159 62.3721 170.544 62.5978 170.024 63.0493C169.511 63.5008 169.254 64.3574 169.254 65.6191V71H167.584ZM178.17 59.3198V57.3994H179.84V59.3198H178.17ZM178.17 71V61.1475H179.84V71H178.17ZM182.79 71V62.4463H181.315V61.1475H182.79V60.0991C182.79 59.4373 182.849 58.9456 182.966 58.624C183.127 58.1911 183.409 57.8416 183.811 57.5757C184.219 57.3035 184.788 57.1675 185.518 57.1675C185.988 57.1675 186.507 57.2231 187.076 57.3345L186.826 58.791C186.479 58.7292 186.152 58.6982 185.842 58.6982C185.335 58.6982 184.976 58.8065 184.766 59.0229C184.556 59.2394 184.451 59.6445 184.451 60.2383V61.1475H186.371V62.4463H184.451V71H182.79ZM194.424 67.8271L196.149 68.0405C195.877 69.0487 195.373 69.8311 194.637 70.3877C193.901 70.9443 192.961 71.2227 191.817 71.2227C190.376 71.2227 189.232 70.7804 188.384 69.896C187.543 69.0054 187.123 67.7591 187.123 66.1572C187.123 64.4997 187.549 63.2132 188.403 62.2979C189.256 61.3825 190.363 60.9248 191.724 60.9248C193.042 60.9248 194.118 61.3732 194.953 62.27C195.788 63.1668 196.205 64.4285 196.205 66.0552C196.205 66.1541 196.202 66.3026 196.196 66.5005H188.848C188.91 67.5828 189.216 68.4116 189.767 68.9868C190.317 69.562 191.004 69.8496 191.826 69.8496C192.438 69.8496 192.961 69.6888 193.394 69.3672C193.827 69.0456 194.17 68.5322 194.424 67.8271ZM188.941 65.1274H194.442C194.368 64.2987 194.158 63.6771 193.812 63.2627C193.28 62.6195 192.59 62.2979 191.743 62.2979C190.976 62.2979 190.329 62.5545 189.804 63.0679C189.284 63.5812 188.997 64.2677 188.941 65.1274ZM196.715 74.7759V73.5698H207.783V74.7759H196.715ZM215.261 67.3911L216.903 67.6045C216.723 68.7363 216.263 69.6239 215.521 70.2671C214.785 70.9041 213.878 71.2227 212.802 71.2227C211.454 71.2227 210.368 70.7835 209.546 69.9053C208.729 69.0208 208.321 67.756 208.321 66.1108C208.321 65.047 208.498 64.1162 208.85 63.3184C209.203 62.5205 209.738 61.9237 210.455 61.5278C211.179 61.1258 211.964 60.9248 212.812 60.9248C213.882 60.9248 214.757 61.1969 215.437 61.7412C216.117 62.2793 216.553 63.0462 216.745 64.042L215.122 64.2925C214.967 63.6307 214.692 63.1328 214.296 62.7988C213.906 62.4648 213.433 62.2979 212.876 62.2979C212.035 62.2979 211.352 62.6009 210.826 63.207C210.3 63.807 210.038 64.7594 210.038 66.0645C210.038 67.388 210.291 68.3498 210.798 68.9497C211.306 69.5496 211.967 69.8496 212.784 69.8496C213.439 69.8496 213.987 69.6486 214.426 69.2466C214.865 68.8446 215.143 68.2261 215.261 67.3911ZM217.71 66.0737C217.71 64.2492 218.217 62.8978 219.231 62.0195C220.079 61.2897 221.112 60.9248 222.33 60.9248C223.685 60.9248 224.792 61.3701 225.651 62.2607C226.511 63.1452 226.941 64.3698 226.941 65.9346C226.941 67.2025 226.749 68.2013 226.366 68.9312C225.988 69.6548 225.435 70.2176 224.705 70.6196C223.981 71.0216 223.19 71.2227 222.33 71.2227C220.951 71.2227 219.834 70.7804 218.981 69.896C218.134 69.0116 217.71 67.7375 217.71 66.0737ZM219.426 66.0737C219.426 67.3354 219.701 68.2817 220.252 68.9126C220.802 69.5373 221.495 69.8496 222.33 69.8496C223.159 69.8496 223.848 69.5342 224.399 68.9033C224.949 68.2725 225.225 67.3107 225.225 66.0181C225.225 64.7996 224.946 63.8781 224.39 63.2534C223.839 62.6226 223.153 62.3071 222.33 62.3071C221.495 62.3071 220.802 62.6195 220.252 63.2441C219.701 63.8688 219.426 64.812 219.426 66.0737Z"
    fill="white" />
  <path
    d="M39.2619 31.5754C39.2302 29.9433 38.9211 28.3284 38.3479 26.7999C37.8411 25.4914 37.0668 24.303 36.0745 23.3107C35.0823 22.3184 33.8939 21.5441 32.5853 21.0374C31.0567 20.4646 29.4419 20.1556 27.8098 20.1234C25.7077 20.0228 25.0336 20 19.6892 20C14.3448 20 13.673 20.0228 11.5731 20.1165C9.941 20.1482 8.32614 20.4573 6.79765 21.0305C5.48036 21.5269 4.2884 22.3069 3.30629 23.3154C2.30543 24.2958 1.52901 25.4815 1.0305 26.7908C0.457826 28.3194 0.14878 29.9342 0.116531 31.5663C0.0228492 33.6753 0 34.3448 0 39.6892C0 45.0336 0.0228493 45.7031 0.114246 47.803C0.14592 49.4351 0.454984 51.05 1.02822 52.5784C1.53488 53.8871 2.30912 55.0756 3.3014 56.0678C4.29368 57.0601 5.48216 57.8344 6.79079 58.341C8.31944 58.9137 9.93421 59.2228 11.5663 59.255C13.6661 59.3464 14.3356 59.3692 19.68 59.3692C25.0245 59.3692 25.694 59.3464 27.7938 59.255C29.426 59.2233 31.0408 58.9143 32.5693 58.341C33.8777 57.8351 35.066 57.0613 36.058 56.0694C37.0499 55.0774 37.8237 53.8892 38.3296 52.5807C38.9021 51.052 39.2111 49.4373 39.2436 47.8052C39.335 45.7054 39.3578 45.0359 39.3578 39.6915C39.3578 34.347 39.3578 33.6776 39.2573 31.5777L39.2619 31.5754ZM35.7179 47.6476C35.7028 48.8967 35.4708 50.1337 35.0325 51.3035C34.7044 52.1527 34.2023 52.924 33.5586 53.5677C32.9148 54.2115 32.1436 54.7135 31.2943 55.0416C30.1243 55.4792 28.8875 55.7111 27.6384 55.7271C25.5614 55.8185 24.9399 55.8413 19.6869 55.8413C14.4339 55.8413 13.8032 55.8185 11.7331 55.7271C10.484 55.712 9.24694 55.4801 8.07721 55.0416C7.22725 54.7263 6.45891 54.2242 5.82884 53.5724C5.177 52.937 4.67508 52.1642 4.35964 51.3103C3.92203 50.1403 3.69012 48.9035 3.67416 47.6544C3.58276 45.5774 3.55991 44.9537 3.55991 39.7006C3.55991 34.4476 3.58276 33.8169 3.67416 31.7491C3.68919 30.5 3.92114 29.2629 4.35964 28.0932C4.67176 27.2396 5.17421 26.4684 5.82884 25.838C6.46405 25.1859 7.23689 24.6839 8.09092 24.3688C9.26093 23.9313 10.4978 23.6994 11.7468 23.6833C13.8238 23.5919 14.4476 23.5691 19.6983 23.5691C24.9491 23.5691 25.582 23.5919 27.6521 23.6833C28.9013 23.6985 30.1383 23.9304 31.308 24.3688C32.163 24.6821 32.9362 25.1843 33.5701 25.838C34.222 26.4733 34.7239 27.2461 35.0393 28.1001C35.4768 29.2701 35.7087 30.5069 35.7248 31.7559C35.8162 33.8329 35.839 34.4544 35.839 39.7075C35.839 44.9605 35.8162 45.5752 35.7248 47.6522L35.7179 47.6476Z"
    fill="white" />
  <path
    d="M19.6893 29.5762C17.6891 29.5762 15.7338 30.1693 14.0707 31.2805C12.4076 32.3918 11.1114 33.9712 10.346 35.8191C9.58056 37.6671 9.38028 39.7005 9.77049 41.6622C10.1607 43.624 11.1239 45.4259 12.5382 46.8403C13.9526 48.2546 15.7546 49.2178 17.7163 49.608C19.678 49.9982 21.7114 49.7979 23.5594 49.0325C25.4073 48.2671 26.9867 46.9708 28.098 45.3078C29.2092 43.6447 29.8023 41.6894 29.8023 39.6892C29.8017 37.0073 28.7361 34.4353 26.8396 32.5389C24.9432 30.6425 22.3712 29.5768 19.6893 29.5762ZM19.6893 46.2561C18.3918 46.2561 17.1235 45.8714 16.0447 45.1505C14.9659 44.4297 14.1251 43.4052 13.6286 42.2065C13.1321 41.0078 13.0022 39.6888 13.2553 38.4163C13.5084 37.1438 14.1332 35.9749 15.0506 35.0575C15.9681 34.14 17.1369 33.5153 18.4095 33.2621C19.682 33.009 21.001 33.1389 22.1997 33.6354C23.3983 34.1319 24.4229 34.9728 25.1437 36.0516C25.8645 37.1303 26.2493 38.3987 26.2493 39.6961C26.2487 41.4357 25.5573 43.104 24.3272 44.3341C23.0971 45.5642 21.4289 46.2555 19.6893 46.2561Z"
    fill="white" />
  <path
    d="M32.5644 29.1758C32.5644 29.6426 32.4259 30.0989 32.1666 30.4871C31.9072 30.8752 31.5386 31.1778 31.1073 31.3564C30.676 31.5351 30.2014 31.5818 29.7436 31.4907C29.2857 31.3997 28.8652 31.1749 28.5351 30.8448C28.205 30.5147 27.9802 30.0941 27.8891 29.6362C27.798 29.1784 27.8448 28.7038 28.0234 28.2725C28.2021 27.8412 28.5046 27.4726 28.8927 27.2132C29.2809 26.9539 29.7373 26.8154 30.2041 26.8154C30.8301 26.8154 31.4304 27.0641 31.8731 27.5068C32.3157 27.9494 32.5644 28.5498 32.5644 29.1758Z"
    fill="white" />
</svg>
