<svg width="29" height="29" viewBox="0 0 29 29" fill="none" xmlns="http://www.w3.org/2000/svg">
  <path
    d="M13.1232 4.76855H4.8987C4.27547 4.76855 3.67777 5.01613 3.23709 5.45682C2.7964 5.8975 2.54883 6.4952 2.54883 7.11842V23.5675C2.54883 24.1907 2.7964 24.7884 3.23709 25.2291C3.67777 25.6698 4.27547 25.9174 4.8987 25.9174H21.3478C21.971 25.9174 22.5687 25.6698 23.0094 25.2291C23.4501 24.7884 23.6976 24.1907 23.6976 23.5675V15.343"
    stroke="black" stroke-width="2.45204" stroke-linecap="round" stroke-linejoin="round" />
  <path
    d="M21.935 3.00735C22.4024 2.53994 23.0363 2.27734 23.6974 2.27734C24.3584 2.27734 24.9923 2.53994 25.4598 3.00735C25.9272 3.47477 26.1898 4.10873 26.1898 4.76976C26.1898 5.43078 25.9272 6.06474 25.4598 6.53216L14.2979 17.694L9.59814 18.869L10.7731 14.1692L21.935 3.00735Z"
    stroke="black" stroke-width="2.45204" stroke-linecap="round" stroke-linejoin="round" />
</svg>
