<svg width="31" height="30" viewBox="0 0 31 30" fill="none" xmlns="http://www.w3.org/2000/svg">
  <path
    d="M27.7191 20.9593V24.6374C27.7205 24.9788 27.6506 25.3168 27.5138 25.6296C27.377 25.9425 27.1764 26.2233 26.9248 26.4542C26.6732 26.685 26.3761 26.8607 26.0527 26.9701C25.7292 27.0795 25.3865 27.1201 25.0464 27.0894C21.2738 26.6795 17.6498 25.3903 14.4659 23.3255C11.5036 21.4432 8.99212 18.9317 7.10977 15.9694C5.03777 12.771 3.74832 9.12945 3.34589 5.33983C3.31525 5.0008 3.35554 4.6591 3.4642 4.33649C3.57286 4.01388 3.7475 3.71743 3.977 3.46601C4.20651 3.21459 4.48585 3.01372 4.79724 2.87617C5.10863 2.73863 5.44525 2.66743 5.78567 2.66711H9.46372C10.0587 2.66126 10.6355 2.87195 11.0867 3.25993C11.5378 3.64791 11.8325 4.1867 11.9158 4.77586C12.071 5.95292 12.3589 7.10864 12.774 8.22097C12.9389 8.6598 12.9746 9.13671 12.8768 9.59519C12.7791 10.0537 12.5519 10.4745 12.2223 10.8079L10.6652 12.3649C12.4105 15.4343 14.9519 17.9757 18.0213 19.721L19.5784 18.164C19.9117 17.8344 20.3326 17.6072 20.7911 17.5094C21.2495 17.4116 21.7264 17.4473 22.1653 17.6123C23.2776 18.0273 24.4333 18.3152 25.6104 18.4705C26.2059 18.5545 26.7498 18.8545 27.1387 19.3134C27.5275 19.7723 27.7341 20.358 27.7191 20.9593Z"
    stroke="black" stroke-width="2.45204" stroke-linecap="round" stroke-linejoin="round" />
</svg>
